<svg width="24" height="24" viewBox="0 0 24 24" fill="none" xmlns="http://www.w3.org/2000/svg">
<path fill-rule="evenodd" clip-rule="evenodd" d="M12 22.8C17.9647 22.8 22.8 17.9648 22.8 12C22.8 6.03533 17.9648 1.19997 12 1.19997C6.03533 1.19997 1.19997 6.03533 1.19997 12C1.19997 17.9647 6.03533 22.8 12 22.8ZM12 24C18.6273 24 24 18.6273 24 12C24 5.37253 18.6273 0 12 0C5.37253 0 0 5.37253 0 12C0 18.6273 5.37253 24 12 24Z" fill="white"/>
<path fill-rule="evenodd" clip-rule="evenodd" d="M16.8 11.9999C16.8 12.3312 16.5313 12.5999 16.2 12.5999H7.79994C7.46854 12.5999 7.19995 12.3312 7.19995 11.9999C7.19995 11.6686 7.46854 11.3999 7.79994 11.3999H16.1999C16.5313 11.3999 16.8 11.6686 16.8 11.9999Z" fill="white"/>
<path fill-rule="evenodd" clip-rule="evenodd" d="M11.9999 16.8C11.6686 16.8 11.3999 16.5313 11.3999 16.2V7.79994C11.3999 7.46854 11.6686 7.19995 11.9999 7.19995C12.3312 7.19995 12.5999 7.46854 12.5999 7.79994V16.1999C12.5999 16.5313 12.3312 16.8 11.9999 16.8Z" fill="white"/>
</svg>
