<svg width="54" height="54" viewBox="0 0 54 54" fill="none" xmlns="http://www.w3.org/2000/svg">
<path d="M26.8889 0C12.0624 0 0 12.0624 0 26.8889C0 41.7143 12.0624 53.7778 26.8889 53.7778C41.7143 53.7778 53.7778 41.7143 53.7778 26.8889C53.7778 12.0624 41.7164 0 26.8889 0ZM33.5759 27.8355H29.2013V43.4277H22.719C22.719 43.4277 22.719 34.9081 22.719 27.8355H19.6376V22.3247H22.719V18.7603C22.719 16.2074 23.932 12.2184 29.2609 12.2184L34.0644 12.2368V17.5862C34.0644 17.5862 31.1454 17.5862 30.5779 17.5862C30.0104 17.5862 29.2035 17.87 29.2035 19.0874V22.3258H34.1424L33.5759 27.8355Z" fill="#0066FF"/>
</svg>
