<svg width="55" height="54" viewBox="0 0 55 54" fill="none" xmlns="http://www.w3.org/2000/svg">
<path d="M32.8134 26.8894C32.8134 29.7319 30.5092 32.0361 27.6667 32.0361C24.8242 32.0361 22.52 29.7319 22.52 26.8894C22.52 24.0469 24.8242 21.7427 27.6667 21.7427C30.5092 21.7427 32.8134 24.0469 32.8134 26.8894Z" fill="#0066FF"/>
<path d="M39.7029 17.7833C39.4555 17.1129 39.0608 16.5061 38.548 16.008C38.0499 15.4951 37.4435 15.1004 36.7726 14.853C36.2286 14.6417 35.4113 14.3902 33.9059 14.3217C32.2775 14.2474 31.7892 14.2314 27.6666 14.2314C23.5436 14.2314 23.0554 14.247 21.4273 14.3213C19.922 14.3902 19.1042 14.6417 18.5606 14.853C17.8898 15.1004 17.283 15.4951 16.7853 16.008C16.2724 16.5061 15.8777 17.1125 15.6299 17.7833C15.4186 18.3274 15.1671 19.1451 15.0986 20.6505C15.0243 22.2785 15.0083 22.7667 15.0083 26.8898C15.0083 31.0124 15.0243 31.5006 15.0986 33.1291C15.1671 34.6344 15.4186 35.4517 15.6299 35.9958C15.8777 36.6666 16.272 37.273 16.7849 37.7711C17.283 38.284 17.8894 38.6787 18.5602 38.9261C19.1042 39.1378 19.922 39.3893 21.4273 39.4578C23.0554 39.5321 23.5432 39.5477 27.6662 39.5477C31.7896 39.5477 32.2779 39.5321 33.9055 39.4578C35.4109 39.3893 36.2286 39.1378 36.7726 38.9261C38.1192 38.4067 39.1835 37.3424 39.7029 35.9958C39.9142 35.4517 40.1658 34.6344 40.2347 33.1291C40.309 31.5006 40.3245 31.0124 40.3245 26.8898C40.3245 22.7667 40.309 22.2785 40.2347 20.6505C40.1662 19.1451 39.9147 18.3274 39.7029 17.7833ZM27.6666 34.8178C23.2876 34.8178 19.7377 31.2684 19.7377 26.8894C19.7377 22.5103 23.2876 18.9609 27.6666 18.9609C32.0453 18.9609 35.5951 22.5103 35.5951 26.8894C35.5951 31.2684 32.0453 34.8178 27.6666 34.8178ZM35.9086 20.5003C34.8853 20.5003 34.0557 19.6707 34.0557 18.6474C34.0557 17.6241 34.8853 16.7945 35.9086 16.7945C36.9318 16.7945 37.7614 17.6241 37.7614 18.6474C37.761 19.6707 36.9318 20.5003 35.9086 20.5003Z" fill="#0066FF"/>
<path d="M27.6667 0.000488281C12.8187 0.000488281 0.777832 12.0413 0.777832 26.8894C0.777832 41.7374 12.8187 53.7783 27.6667 53.7783C42.5148 53.7783 54.5556 41.7374 54.5556 26.8894C54.5556 12.0413 42.5148 0.000488281 27.6667 0.000488281ZM43.0137 33.2551C42.939 34.8987 42.6777 36.0208 42.2961 37.0031C41.494 39.0771 39.8544 40.7166 37.7804 41.5187C36.7986 41.9003 35.676 42.1613 34.0328 42.2363C32.3863 42.3114 31.8603 42.3295 27.6671 42.3295C23.4735 42.3295 22.948 42.3114 21.301 42.2363C19.6578 42.1613 18.5353 41.9003 17.5534 41.5187C16.5228 41.131 15.5898 40.5234 14.8184 39.7377C14.0331 38.9667 13.4255 38.0333 13.0378 37.0031C12.6562 36.0212 12.3948 34.8987 12.3202 33.2555C12.2443 31.6086 12.2266 31.0826 12.2266 26.8894C12.2266 22.6962 12.2443 22.1702 12.3198 20.5237C12.3944 18.8801 12.6554 17.7579 13.0369 16.7757C13.4247 15.7454 14.0327 14.812 14.8184 14.0411C15.5894 13.2554 16.5228 12.6477 17.553 12.26C18.5353 11.8784 19.6574 11.6175 21.301 11.5424C22.9475 11.4673 23.4735 11.4493 27.6667 11.4493C31.8599 11.4493 32.3859 11.4673 34.0324 11.5428C35.676 11.6175 36.7982 11.8784 37.7804 12.2596C38.8107 12.6473 39.7441 13.2554 40.5154 14.0411C41.3007 14.8124 41.9088 15.7454 42.2961 16.7757C42.6781 17.7579 42.939 18.8801 43.0141 20.5237C43.0892 22.1702 43.1068 22.6962 43.1068 26.8894C43.1068 31.0826 43.0892 31.6086 43.0137 33.2551V33.2551Z" fill="#0066FF"/>
</svg>
