<svg width="73" height="48" viewBox="0 0 73 48" fill="none" xmlns="http://www.w3.org/2000/svg">
<path fill-rule="evenodd" clip-rule="evenodd" d="M23.6086 41.4326C23.6086 41.4326 23.6086 42.4911 25.3746 42.4911C27.1405 42.4911 28.6219 42.2127 29.5333 41.544C29.9441 41.2427 30.378 40.8282 30.8663 40.3618C31.4616 39.7932 32.1378 39.1473 32.9516 38.5351C33.9773 37.7635 34.4022 37.152 34.8313 36.5343C35.0218 36.2601 35.2131 35.9847 35.4582 35.6935C36.2558 34.7462 39.4459 34.2445 40.5853 35.4705C41.7248 36.6963 42.8642 37.5321 43.8326 37.5321C43.9971 37.5321 44.2059 37.5224 44.4345 37.5118C45.5523 37.4602 47.1437 37.3867 46.3398 38.3118C45.8916 38.8277 45.2358 39.0808 44.559 39.3421C43.7736 39.6453 42.9597 39.9595 42.409 40.7077C41.3837 42.1008 42.2952 42.7692 42.8081 42.7692C43.3208 42.7692 45.0298 42.7692 45.2575 43.5496C45.3493 43.8635 45.5425 44.0962 45.7407 44.3349C46.0349 44.6893 46.34 45.0567 46.34 45.7224C46.34 46.8366 46.397 48.2856 47.9924 47.951C48.8359 47.7743 49.3767 47.0211 49.876 46.3257C50.3209 45.7061 50.7327 45.1325 51.2963 45.0537C51.62 45.0085 51.9353 44.9918 52.2322 44.9761C53.0326 44.9337 53.6986 44.8984 54.0312 44.3294C54.458 43.5992 55.184 43.6013 56.3032 43.6045C56.3797 43.6048 56.4579 43.605 56.5381 43.605C57.7911 43.605 58.9875 42.9363 59.0447 42.0449C59.0601 41.8054 59.1658 41.4092 59.2803 40.9803C59.5919 39.8126 59.9681 38.4032 58.7598 39.259C58.0874 39.7351 57.6414 40.1929 57.2683 40.5759C56.7247 41.1339 56.3358 41.5331 55.6264 41.5991C54.43 41.7105 52.8351 41.7662 52.3222 40.4288C52.1739 40.0421 51.959 39.6788 51.7587 39.3401C51.2661 38.5075 50.8617 37.8237 51.7526 37.3088C53.0059 36.5844 55.5125 34.9129 56.1393 34.4113C56.7661 33.9096 60.4124 32.962 61.7798 32.6279C62.1425 32.5392 62.5452 32.4544 62.954 32.3684C64.0864 32.1301 65.2654 31.8819 65.7678 31.5135C66.1296 31.248 66.0604 30.7482 65.9828 30.1877C65.9139 29.6897 65.8383 29.1437 66.0527 28.6719C66.5084 27.6691 68.5596 26.3317 69.1292 26.3874C69.6988 26.4431 72.2054 26.3317 72.2054 25.496C72.2054 25.2769 72.2484 25.0502 72.2935 24.8128C72.4203 24.1445 72.5632 23.3918 71.8066 22.4871C71.4315 22.0387 71.0106 21.7543 70.675 21.5276C70.0934 21.1346 69.7682 20.9148 70.3825 20.3142C71.3511 19.3668 71.9779 18.3635 71.9779 17.1934C71.9779 16.9066 72.0224 16.6399 72.0623 16.4007C72.1852 15.6638 72.2647 15.1876 70.8669 15.1876C69.0153 15.1876 66.3664 14.0175 66.3664 14.0175C66.3664 14.0175 62.8919 14.5465 61.8661 13.0699C61.5199 12.5715 61.3652 12.1175 61.241 11.753C60.9972 11.0375 60.8708 10.6665 59.6444 10.9802C58.8917 11.1728 58.3885 11.416 57.9665 11.62C57.3501 11.9179 56.9067 12.1322 56.1122 11.9833C55.6155 11.8902 55.1932 11.9122 54.8295 11.9312C54.2129 11.9633 53.7644 11.9866 53.406 11.426C52.9358 10.6903 52.9311 9.63203 52.928 8.92457C52.9274 8.77474 52.9268 8.64065 52.9218 8.52869C52.8991 8.01729 51.8416 7.75429 50.4159 7.39974C50.0558 7.31017 49.6722 7.21476 49.2758 7.10803C47.3103 6.57854 48.5351 4.73974 48.5351 4.73974C48.5351 4.73974 48.9057 2.65012 47.8517 2.09305C47.2528 1.77652 46.5712 1.16314 46.0368 0.682219C45.6306 0.316732 45.3095 0.0277287 45.1743 0.00368521C44.8606 -0.051996 42.4963 0.533182 41.8413 1.09026C41.5709 1.32028 41.3247 1.4791 41.1008 1.62356C40.7824 1.82896 40.509 2.00532 40.2749 2.31603C40.1294 2.50917 39.5365 2.44525 38.8145 2.3674C37.558 2.23193 35.9105 2.05429 35.5487 3.11579C35.1512 4.28231 35.1418 5.55786 35.1339 6.63857C35.1304 7.10615 35.1272 7.53725 35.093 7.90727C34.9273 9.69852 33.6109 10.7008 32.4333 8.26893C31.921 7.21073 31.3699 6.77368 31.085 6.60638C31.0255 6.57154 30.9637 6.52821 30.8936 6.47917C30.6277 6.29303 30.2444 6.02463 29.4329 5.82631C29.0337 5.72876 28.6113 5.49168 28.1602 5.23849C27.4527 4.84136 26.6746 4.4046 25.8048 4.4046C24.3804 4.4046 21.6745 3.93105 20.1648 2.9561C18.6838 1.99947 14.0645 1.86019 13.0285 1.82895L12.9723 1.82725C12.5335 1.81385 12.108 2.16837 11.6735 2.53041C11.2052 2.92057 10.7264 3.31947 10.2092 3.27601C9.99524 3.25803 9.79175 3.2221 9.60356 3.18887C8.91479 3.06725 8.43077 2.98178 8.38605 3.94471C8.3553 4.60688 8.61545 5.15531 8.86118 5.67334C9.07033 6.11426 9.26903 6.53316 9.26903 6.98144C9.26903 7.95665 9.1267 9.12648 8.92744 9.54461C8.85739 9.69133 8.16241 10.2879 7.28747 11.039C5.67042 12.4271 3.43867 14.3428 3.40156 14.9213C3.38355 15.2019 3.49543 15.5874 3.61455 15.9979C3.87386 16.8915 4.16748 17.9033 3.23049 18.2086C1.86332 18.6543 0.324816 19.88 0.0401566 20.7717C-0.189906 21.4922 0.621807 21.885 1.12197 22.127C1.24066 22.1844 1.34181 22.2334 1.40733 22.2762C1.51745 22.3479 1.96394 22.5466 2.60815 22.8333C3.96538 23.4373 6.20019 24.4319 8.01599 25.4521C9.09824 26.0602 9.70587 26.4953 10.1285 26.7979C10.7515 27.244 10.9725 27.4023 11.7193 27.4023C12.2132 27.4023 12.2116 27.1513 12.2098 26.8574C12.2069 26.4056 12.2034 25.8525 13.9981 25.9535C16.3566 26.0865 17.6679 25.1247 18.5933 24.4459C18.8302 24.2722 19.0419 24.1169 19.2394 24.0033C20.2077 23.4463 22.4864 23.3347 23.7397 24.3934C24.1533 24.7427 24.5173 25.086 24.8685 25.4172C25.5816 26.0898 26.242 26.7126 27.158 27.2352C28.1583 27.806 28.3658 28.7347 28.5167 29.4102C28.572 29.6579 28.6198 29.8716 28.6962 30.0211C28.7566 30.1392 28.9092 30.3699 29.1088 30.6719C29.8511 31.7946 31.2445 33.9021 30.9751 34.868C30.8191 35.427 30.13 35.0822 29.3455 34.6896C28.4096 34.2213 27.3379 33.685 26.8731 34.5337C26.5223 35.1742 26.5843 35.918 26.6454 36.6494C26.733 37.6996 26.8185 38.7243 25.6767 39.3811C23.7391 40.4958 23.6086 41.4326 23.6086 41.4326ZM17.6266 14.2925H20.1264V20.6829H17.6266V18.322L16.2944 18.4381V20.6829H13.7986V14.2925H16.2944V16.6014L17.6266 16.4933V14.2925ZM21.1175 14.2925H25.736V16.1332H23.6134V16.6574H25.728V18.226H23.6134V18.8302H25.8765V20.6829H21.1175V14.2925ZM26.8315 14.2925H29.3273V18.7582H31.4821V20.6829H26.8315V14.2925ZM32.104 14.3085C33.4309 14.1778 34.434 14.1124 35.1135 14.1124C35.7929 14.1124 36.3306 14.1618 36.7265 14.2605C37.1251 14.3592 37.4528 14.5126 37.7096 14.7207C38.2072 15.1261 38.456 15.7917 38.456 16.7174C38.456 17.1336 38.377 17.5151 38.2192 17.8619C38.0614 18.2086 37.846 18.5061 37.5732 18.7542C37.3003 19.0023 36.9807 19.1957 36.6142 19.3344C36.2477 19.4731 35.8558 19.5425 35.4385 19.5425L34.7242 19.5265V20.6829H32.104V14.3085ZM35.7194 15.7731C35.4893 15.7731 35.1523 15.9318 34.7082 16.2492V17.7578L35.1777 17.5297C35.488 17.3777 35.7047 17.2323 35.8277 17.0936C36.0578 16.8348 36.1728 16.5774 36.1728 16.3213C36.1728 16.0652 36.0858 15.8958 35.912 15.8131C35.8558 15.7864 35.7916 15.7731 35.7194 15.7731ZM41.1885 14.2925H42.1074L45.2051 17.1936L48.3871 14.2925H49.2739V20.6829H46.6376V18.6101L45.0005 20.4028L43.4075 18.6582V20.6829H41.1885V14.2925ZM50.265 14.2925H54.8835V16.1332H52.7609V16.6574H54.8755V18.226H52.7609V18.8302H55.024V20.6829H50.265V14.2925ZM42.4132 29.3838C42.9767 29.927 43.7625 30.1986 44.7706 30.1986C45.7786 30.1986 46.5644 29.927 47.1279 29.3838C47.6914 28.8406 47.9732 28.0788 47.9732 27.0985V23.4927H45.7943V27.033C45.7943 27.5138 45.7066 27.8634 45.5313 28.0819C45.3622 28.3005 45.1149 28.4098 44.7893 28.4098C44.4638 28.4098 44.2133 28.3005 44.038 28.0819C43.8689 27.8634 43.7844 27.5138 43.7844 27.033V23.4927H41.568V27.0985C41.568 28.0788 41.8497 28.8406 42.4132 29.3838ZM50.3918 30.0488L50.8332 28.9061H53.3314L53.7729 30.0488H56.0645L53.1906 23.4927H51.0117L48.1378 30.0488H50.3918ZM52.0823 25.6656L52.721 27.3139H51.4437L52.0823 25.6656Z" fill="#0066FF"/>
</svg>
