<svg width="55" height="54" viewBox="0 0 55 54" fill="none" xmlns="http://www.w3.org/2000/svg">
<path d="M38.2399 19.0516L24.603 30.1983L23.9613 30.7238C23.8204 30.8356 23.7283 30.9977 23.7047 31.176L23.5611 32.3616L23.1669 35.6921C23.1705 35.7327 23.1579 35.773 23.1319 35.8042C23.1058 35.8354 23.0684 35.855 23.0279 35.8587C22.9873 35.8623 22.947 35.8497 22.9158 35.8236C22.8846 35.7976 22.865 35.7602 22.8613 35.7196L21.7522 32.3891L20.6063 28.9821C20.5574 28.8295 20.5637 28.6645 20.624 28.5159C20.6843 28.3674 20.7948 28.2447 20.9363 28.1694L35.1263 20.0355L37.7969 18.5077C38.1849 18.2816 38.5822 18.7705 38.2399 19.0516Z" fill="#0066FF"/>
<path d="M27.4446 0C22.1264 0 16.9278 1.57701 12.5059 4.5316C8.08405 7.48618 4.63763 11.6857 2.60247 16.599C0.567315 21.5123 0.0348248 26.9187 1.07234 32.1347C2.10985 37.3506 4.67077 42.1417 8.43125 45.9022C12.1917 49.6627 16.9829 52.2236 22.1988 53.2611C27.4147 54.2986 32.8212 53.7661 37.7345 51.731C42.6478 49.6958 46.8473 46.2494 49.8019 41.8276C52.7565 37.4057 54.3335 32.207 54.3335 26.8889C54.3335 19.7575 51.5005 12.9182 46.4579 7.87557C41.4152 2.83293 34.5759 0 27.4446 0V0ZM44.2165 15.565L38.9671 38.7597C38.7196 39.8475 37.3385 40.3395 36.3699 39.6764L28.4437 34.2986L24.4073 38.115C24.2428 38.2694 24.043 38.3814 23.8253 38.4411C23.6077 38.5009 23.3787 38.5066 23.1584 38.4578C22.938 38.4091 22.7329 38.3073 22.5607 38.1613C22.3886 38.0153 22.2547 37.8295 22.1707 37.62L20.7132 33.3422L19.2557 29.0644L11.4426 26.9256C11.2242 26.8779 11.0276 26.7593 10.8835 26.5884C10.7393 26.4174 10.6557 26.2037 10.6456 25.9803C10.6355 25.7569 10.6995 25.5365 10.8276 25.3532C10.9557 25.17 11.1408 25.0342 11.354 24.9669L41.5368 14.0922L42.0929 13.8936C43.2632 13.4842 44.4732 14.4314 44.2165 15.565Z" fill="#0066FF"/>
</svg>
